<svg xmlns="http://www.w3.org/2000/svg" width="1200" height="560" viewBox="0 0 1200 560" role="img" aria-label="ACHIEVEMENTS">
  <defs>
    <linearGradient id="bg" x1="0" y1="0" x2="1" y2="1">
      <stop offset="0%"   stop-color="#060710"/>
      <stop offset="55%"  stop-color="#100b06"/>
      <stop offset="100%" stop-color="#06070e"/>
    </linearGradient>
    <linearGradient id="panel" x1="0" y1="0" x2="0" y2="1">
      <stop offset="0%"   stop-color="#131520"/>
      <stop offset="100%" stop-color="#0c0d18"/>
    </linearGradient>
    <linearGradient id="accent" x1="0" y1="0" x2="1" y2="0">
      <stop offset="0%"   stop-color="#8b0000"/>
      <stop offset="50%"  stop-color="#f1bd52"/>
      <stop offset="100%" stop-color="#ffffff"/>
    </linearGradient>
    <linearGradient id="gold" x1="0" y1="0" x2="1" y2="0">
      <stop offset="0%"   stop-color="#845e16"/>
      <stop offset="100%" stop-color="#f1bd52"/>
    </linearGradient>
    <pattern id="dots" width="18" height="18" patternUnits="userSpaceOnUse">
      <circle cx="1" cy="1" r="0.7" fill="#fff" opacity="0.04"/>
    </pattern>
    <filter id="softGlow" x="-25%" y="-25%" width="150%" height="150%">
      <feGaussianBlur stdDeviation="2.5" result="blur"/>
      <feMerge><feMergeNode in="blur"/><feMergeNode in="SourceGraphic"/></feMerge>
    </filter>
    <filter id="glowHard" x="-40%" y="-40%" width="180%" height="180%">
      <feGaussianBlur stdDeviation="4" result="blur"/>
      <feMerge><feMergeNode in="blur"/><feMergeNode in="SourceGraphic"/></feMerge>
    </filter>
    <style>
      .title   { fill:#ffffff; font:800 26px 'Bahnschrift','Segoe UI',sans-serif; letter-spacing:4px; }
      .tsub    { fill:#e8b840; font:600 10.5px 'Segoe UI',sans-serif; letter-spacing:3px; }
      .label   { fill:#d0d8e8; font:600 14px 'Segoe UI','Trebuchet MS',sans-serif; }
      .value   { fill:#ffffff; font:800 32px 'Bahnschrift','Segoe UI',sans-serif; }
      .small   { fill:#c8d0e0; font:600 13px 'Segoe UI','Trebuchet MS',sans-serif; }
      .muted   { fill:#8890a8; font:500 11px 'Segoe UI','Trebuchet MS',sans-serif; }
      .stamp   { fill:#555; font:500 10px 'Segoe UI','Trebuchet MS',sans-serif; }
      .mono    { fill:#d8e0f0; font:700 12px 'Consolas','Segoe UI Mono',monospace; }
    </style>
  </defs>

  <!-- Background -->
  <rect width="1200" height="560" fill="url(#bg)"/>
  <!-- Main panel -->
  <rect x="14" y="14" width="1172" height="532" rx="20" fill="url(#panel)" stroke="#b87e28" stroke-width="1.5" stroke-opacity="0.65"/>
  <rect x="14" y="14" width="1172" height="532" rx="20" fill="url(#dots)"/>
  <!-- Top accent bar (gradient, full width) -->
  <rect x="14" y="14" width="1172" height="5" rx="20" fill="url(#accent)"/>

  <!-- ── Animated header section (72px tall) ── -->
  <!-- Subtle header bg strip -->
  <rect x="14" y="14" width="1172" height="72" rx="20" fill="#ffffff" fill-opacity="0.025"/>
  <rect x="14" y="80" width="1172" height="1" fill="url(#accent)" opacity="0.3"/>

  <!-- Corner HUD brackets -->
  <g stroke="#e8b840" stroke-width="1.5" fill="none" opacity="0.55">
    <path d="M30 30 L30 48 L48 48"/>
    <path d="M1170 30 L1170 48 L1152 48"/>
    <path d="M30 544 L30 526 L48 526"/>
    <path d="M1170 544 L1170 526 L1152 526"/>
  </g>

  <!-- Animated scanner line across header -->
  <rect x="56" y="50" width="1000" height="1" fill="url(#accent)" opacity="0.18"/>
  <rect x="0" y="50" width="180" height="1" fill="url(#accent)" opacity="0.9" filter="url(#softGlow)">
    <animateTransform attributeName="transform" type="translate" from="-180,0" to="1200,0" dur="3.8s" repeatCount="indefinite"/>
  </rect>

  <!-- Pulsing live indicator -->
  <circle cx="1152" cy="44" r="5" fill="#9f0000" filter="url(#glowHard)">
    <animate attributeName="r" values="4;8;4" dur="2.2s" repeatCount="indefinite"/>
    <animate attributeName="opacity" values="1;0.3;1" dur="2.2s" repeatCount="indefinite"/>
  </circle>
  <circle cx="1152" cy="44" r="14" fill="none" stroke="#f1bd52" stroke-width="1" opacity="0.2">
    <animate attributeName="r" values="10;20;10" dur="3.5s" repeatCount="indefinite"/>
    <animate attributeName="opacity" values="0.3;0;0.3" dur="3.5s" repeatCount="indefinite"/>
  </circle>
  <!-- LIVE label -->
  <text x="1136" y="42" fill="#e8b840" font-size="8" font-family="Segoe UI" font-weight="700" letter-spacing="2" text-anchor="end" opacity="0.7">LIVE</text>

  <!-- Section title and subtitle -->
  <text x="56" y="52" class="title">ACHIEVEMENTS</text>
  <text x="56" y="70" class="tsub">GITHUB NATIVE BADGES · EARNED FROM REAL PROFILE ACTIVITY</text>
  <text x="1140" y="70" class="stamp" text-anchor="end">Updated 02 May 2026 20:58 UTC</text>

  
  <text x="46" y="108" class="label" style="fill:#e8b840;letter-spacing:2px;">GITHUB NATIVE ACHIEVEMENTS · 3/6 EARNED</text>
  <text x="46" y="124" class="muted">Official GitHub achievement badges · auto-detected from profile activity</text>
  <rect x="46" y="142" width="354" height="130" rx="14" fill="#1a1600" stroke="#e8b840" stroke-width="1.5"/>
  <rect x="46" y="142" width="354" height="4" rx="14" fill="#b30000"/>
  <text x="92" y="172" class="small" style="font-weight:700;font-size:13px">Pull Shark</text>
  <text x="60" y="172" style="font-size:18px;dominant-baseline:auto">🦈</text>
  <text x="60" y="192" class="muted">6 pull requests merged · Silver tier</text>
  <text x="60" y="208" style="fill:#404858;font:500 9px 'Segoe UI',sans-serif;">GitHub Native Achievement</text>
  <rect x="60" y="218" width="326" height="8" rx="4" fill="#1a1d28"/>
  <rect x="60" y="218" width="12" height="8" rx="4" fill="url(#gold)"><animate attributeName="opacity" values="0.8;1;0.8" dur="2.2s" repeatCount="indefinite"/></rect>
  <rect x="60" y="232" width="12" height="2" rx="1" fill="#e8b840" opacity="0.5"/>
  <text x="60" y="254" class="muted" style="font-size:9px;fill:#f5c020">✓ DEFAULT UNLOCKED</text>
  <text x="386" y="254" class="mono" text-anchor="end" style="fill:#8890a8;font-size:9px">6/128 → Gold</text>

  <rect x="422" y="142" width="354" height="130" rx="14" fill="#1a1600" stroke="#e8b840" stroke-width="1.5"/>
  <rect x="422" y="142" width="354" height="4" rx="14" fill="#b30000"/>
  <text x="468" y="172" class="small" style="font-weight:700;font-size:13px">YOLO</text>
  <text x="436" y="172" style="font-size:18px;dominant-baseline:auto">🚀</text>
  <text x="436" y="192" class="muted">Merged a PR without a code review</text>
  <text x="436" y="208" style="fill:#404858;font:500 9px 'Segoe UI',sans-serif;">GitHub Native Achievement</text>
  <rect x="436" y="218" width="326" height="8" rx="4" fill="#1a1d28"/>
  <rect x="436" y="218" width="310" height="8" rx="4" fill="url(#gold)"><animate attributeName="opacity" values="0.8;1;0.8" dur="2.5s" repeatCount="indefinite"/></rect>
  <rect x="436" y="232" width="310" height="2" rx="1" fill="#e8b840" opacity="0.5"/>
  <text x="436" y="254" class="muted" style="font-size:9px;fill:#f5c020">✓ DEFAULT UNLOCKED</text>
  <text x="762" y="254" class="mono" text-anchor="end" style="fill:#8890a8;font-size:9px">One-time badge</text>

  <rect x="798" y="142" width="354" height="130" rx="14" fill="#1a1600" stroke="#e8b840" stroke-width="1.5"/>
  <rect x="798" y="142" width="354" height="4" rx="14" fill="#b30000"/>
  <text x="844" y="172" class="small" style="font-weight:700;font-size:13px">Quickdraw</text>
  <text x="812" y="172" style="font-size:18px;dominant-baseline:auto">⚡</text>
  <text x="812" y="192" class="muted">Closed an issue or PR within 5 minutes</text>
  <text x="812" y="208" style="fill:#404858;font:500 9px 'Segoe UI',sans-serif;">GitHub Native Achievement</text>
  <rect x="812" y="218" width="326" height="8" rx="4" fill="#1a1d28"/>
  <rect x="812" y="218" width="310" height="8" rx="4" fill="url(#gold)"><animate attributeName="opacity" values="0.8;1;0.8" dur="2.8s" repeatCount="indefinite"/></rect>
  <rect x="812" y="232" width="310" height="2" rx="1" fill="#e8b840" opacity="0.5"/>
  <text x="812" y="254" class="muted" style="font-size:9px;fill:#f5c020">✓ DEFAULT UNLOCKED</text>
  <text x="1138" y="254" class="mono" text-anchor="end" style="fill:#8890a8;font-size:9px">One-time badge</text>

  <rect x="46" y="290" width="354" height="130" rx="14" fill="#0e1020" stroke="#2a3050" stroke-width="1.0"/>
  <rect x="46" y="290" width="354" height="4" rx="14" fill="#1a1d28"/>
  <text x="92" y="320" class="small" style="font-weight:700;font-size:13px">Starstruck</text>
  <text x="60" y="320" style="font-size:18px;dominant-baseline:auto">⭐</text>
  <text x="60" y="340" class="muted">Earn 16 stars on one repo (best: 10 total)</text>
  <text x="60" y="356" style="fill:#404858;font:500 9px 'Segoe UI',sans-serif;">GitHub Native Achievement</text>
  <rect x="60" y="366" width="326" height="8" rx="4" fill="#1a1d28"/>
  <rect x="60" y="366" width="192" height="8" rx="4" fill="#2a3050"></rect>
  <rect x="60" y="380" width="192" height="2" rx="1" fill="#2a3050" opacity="0.2"/>
  <text x="60" y="402" class="muted" style="font-size:9px;fill:#4a5578">🔒 LOCKED</text>
  <text x="386" y="402" class="mono" text-anchor="end" style="fill:#8890a8;font-size:9px">10/16 stars needed</text>

  <rect x="422" y="290" width="354" height="130" rx="14" fill="#0e1020" stroke="#2a3050" stroke-width="1.0"/>
  <rect x="422" y="290" width="354" height="4" rx="14" fill="#1a1d28"/>
  <text x="468" y="320" class="small" style="font-weight:700;font-size:13px">Pair Extraordinaire</text>
  <text x="436" y="320" style="font-size:18px;dominant-baseline:auto">🤝</text>
  <text x="436" y="340" class="muted">Co-authored a merged pull request</text>
  <text x="436" y="356" style="fill:#404858;font:500 9px 'Segoe UI',sans-serif;">GitHub Native Achievement</text>
  <rect x="436" y="366" width="326" height="8" rx="4" fill="#1a1d28"/>
  <rect x="436" y="366" width="2" height="8" rx="4" fill="#2a3050"></rect>
  <rect x="436" y="380" width="2" height="2" rx="1" fill="#2a3050" opacity="0.2"/>
  <text x="436" y="402" class="muted" style="font-size:9px;fill:#4a5578">🔒 LOCKED</text>
  <text x="762" y="402" class="mono" text-anchor="end" style="fill:#8890a8;font-size:9px">Co-author a PR commit</text>

  <rect x="798" y="290" width="354" height="130" rx="14" fill="#0e1020" stroke="#2a3050" stroke-width="1.0"/>
  <rect x="798" y="290" width="354" height="4" rx="14" fill="#1a1d28"/>
  <text x="844" y="320" class="small" style="font-weight:700;font-size:13px">Galaxy Brain</text>
  <text x="812" y="320" style="font-size:18px;dominant-baseline:auto">🌌</text>
  <text x="812" y="340" class="muted">Provide 2 accepted answers in Discussions</text>
  <text x="812" y="356" style="fill:#404858;font:500 9px 'Segoe UI',sans-serif;">GitHub Native Achievement</text>
  <rect x="812" y="366" width="326" height="8" rx="4" fill="#1a1d28"/>
  <rect x="812" y="366" width="2" height="8" rx="4" fill="#2a3050"></rect>
  <rect x="812" y="380" width="2" height="2" rx="1" fill="#2a3050" opacity="0.2"/>
  <text x="812" y="402" class="muted" style="font-size:9px;fill:#4a5578">🔒 LOCKED</text>
  <text x="1138" y="402" class="mono" text-anchor="end" style="fill:#8890a8;font-size:9px">Answer in Discussions</text>

</svg>