<svg xmlns="http://www.w3.org/2000/svg" width="1200" height="580" viewBox="0 0 1200 580" role="img" aria-label="TROPHY CASE">
  <defs>
    <linearGradient id="bg" x1="0" y1="0" x2="1" y2="1">
      <stop offset="0%" stop-color="#050505"/>
      <stop offset="50%" stop-color="#110909"/>
      <stop offset="100%" stop-color="#0a0a0a"/>
    </linearGradient>
        <radialGradient id="vignette" cx="50%" cy="45%" r="70%">
            <stop offset="0%" stop-color="#000000" stop-opacity="0"/>
            <stop offset="100%" stop-color="#000000" stop-opacity="0.62"/>
        </radialGradient>
    <linearGradient id="accent" x1="0" y1="0" x2="1" y2="0">
      <stop offset="0%" stop-color="#b30000"/>
      <stop offset="50%" stop-color="#f4c35a"/>
      <stop offset="100%" stop-color="#ffffff"/>
    </linearGradient>
        <linearGradient id="shine" x1="0" y1="0" x2="1" y2="0">
            <stop offset="0%" stop-color="#ffffff" stop-opacity="0"/>
            <stop offset="45%" stop-color="#f4c35a" stop-opacity="0"/>
            <stop offset="50%" stop-color="#f4c35a" stop-opacity="0.85"/>
            <stop offset="55%" stop-color="#f4c35a" stop-opacity="0"/>
            <stop offset="100%" stop-color="#ffffff" stop-opacity="0"/>
        </linearGradient>
    <linearGradient id="gold" x1="0" y1="0" x2="1" y2="0">
      <stop offset="0%" stop-color="#8c6a1a"/>
      <stop offset="100%" stop-color="#f4c35a"/>
    </linearGradient>
        <pattern id="scan" width="8" height="8" patternUnits="userSpaceOnUse">
            <rect width="8" height="8" fill="transparent"/>
            <path d="M0 0 L8 0" stroke="#ffffff" stroke-opacity="0.04"/>
        </pattern>
        <filter id="softGlow" x="-20%" y="-20%" width="140%" height="140%">
            <feGaussianBlur stdDeviation="2.2" result="blur"/>
            <feMerge>
                <feMergeNode in="blur"/>
                <feMergeNode in="SourceGraphic"/>
            </feMerge>
        </filter>
    <style>
      .title { fill: #ffffff; font: 700 42px 'Segoe UI', 'Trebuchet MS', sans-serif; letter-spacing: 1px; }
      .subtitle { fill: #f6d489; font: 500 20px 'Segoe UI', 'Trebuchet MS', sans-serif; }
      .label { fill: #e8e8e8; font: 600 18px 'Segoe UI', 'Trebuchet MS', sans-serif; }
      .value { fill: #ffffff; font: 700 36px 'Segoe UI', 'Trebuchet MS', sans-serif; }
      .small { fill: #f7f7f7; font: 500 16px 'Segoe UI', 'Trebuchet MS', sans-serif; }
      .muted { fill: #d6d6d6; font: 500 14px 'Segoe UI', 'Trebuchet MS', sans-serif; }
      .stamp { fill: #ffffff; font: 600 13px 'Segoe UI', 'Trebuchet MS', sans-serif; opacity: 0.8; }
      .mono { fill: #ffffff; font: 600 15px 'Consolas', 'Segoe UI Mono', monospace; }
    </style>
  </defs>

  <rect width="1200" height="580" fill="url(#bg)"/>
    <rect width="1200" height="580" fill="url(#vignette)"/>
  <rect x="24" y="24" width="1152" height="532" rx="24" fill="#0d0d0f" stroke="#f4c35a" stroke-opacity="0.55" stroke-width="2"/>
    <rect x="24" y="24" width="1152" height="532" rx="24" fill="url(#scan)" opacity="0.35"/>
  <rect x="24" y="24" width="1152" height="7" fill="url(#accent)" rx="24"/>
    <rect x="24" y="24" width="180" height="7" fill="url(#shine)" rx="24" filter="url(#softGlow)">
        <animate attributeName="x" values="24;996;24" dur="8s" repeatCount="indefinite"/>
    </rect>
    <rect x="24" y="34" width="1152" height="1.5" fill="url(#accent)" opacity="0.32">
        <animate attributeName="y" values="36;544;36" dur="9s" repeatCount="indefinite"/>
    </rect>

  <text x="64" y="92" class="title">TROPHY CASE</text>
  <text x="64" y="126" class="subtitle">Repository standings with trophy ratings</text>
  <text x="1136" y="126" class="stamp" text-anchor="end">Updated 21 Apr 2026 12:18 UTC</text>

  
  <text x="64" y="170" class="label">Top repositories with trophy class and rating</text>
  <rect x="64" y="182" width="1072" height="46" rx="10" fill="#141417" stroke="#2a2a2d"/>
  <circle cx="92" cy="203" r="14" fill="#f4c35a"/>
  <text x="92" y="208" text-anchor="middle" class="mono">1</text>
    <text x="120" y="204" class="small">Deadrop</text>
  <text x="120" y="222" class="muted">Lang: Rust | Stars: 3 | Forks: 0</text>
  <text x="760" y="204" class="small">Trophy: GOLD</text>
  <text x="1088" y="204" class="mono" text-anchor="end">Rating 71/100 [A]</text>

  <rect x="64" y="238" width="1072" height="46" rx="10" fill="#141417" stroke="#2a2a2d"/>
  <circle cx="92" cy="259" r="14" fill="#d9d9d9"/>
  <text x="92" y="264" text-anchor="middle" class="mono">2</text>
    <text x="120" y="260" class="small">Ferret-rs</text>
  <text x="120" y="278" class="muted">Lang: Rust | Stars: 3 | Forks: 0</text>
  <text x="760" y="260" class="small">Trophy: SILVER</text>
  <text x="1088" y="260" class="mono" text-anchor="end">Rating 67/100 [B]</text>

  <rect x="64" y="294" width="1072" height="46" rx="10" fill="#141417" stroke="#2a2a2d"/>
  <circle cx="92" cy="315" r="14" fill="#c88956"/>
  <text x="92" y="320" text-anchor="middle" class="mono">3</text>
    <text x="120" y="316" class="small">Karmanya03</text>
  <text x="120" y="334" class="muted">Lang: Python | Stars: 0 | Forks: 0</text>
  <text x="760" y="316" class="small">Trophy: BRONZE</text>
  <text x="1088" y="316" class="mono" text-anchor="end">Rating 27/100 [C]</text>

  <rect x="64" y="350" width="1072" height="46" rx="10" fill="#141417" stroke="#2a2a2d"/>
  <circle cx="92" cy="371" r="14" fill="#b30000"/>
  <text x="92" y="376" text-anchor="middle" class="mono">4</text>
    <text x="120" y="372" class="small">Overthrone</text>
  <text x="120" y="390" class="muted">Lang: Rust | Stars: 0 | Forks: 0</text>
  <text x="760" y="372" class="small">Trophy: CRIMSON</text>
  <text x="1088" y="372" class="mono" text-anchor="end">Rating 23/100 [C]</text>

  <rect x="64" y="406" width="1072" height="46" rx="10" fill="#141417" stroke="#2a2a2d"/>
  <circle cx="92" cy="427" r="14" fill="#b30000"/>
  <text x="92" y="432" text-anchor="middle" class="mono">5</text>
    <text x="120" y="428" class="small">Kaizen-JAM</text>
  <text x="120" y="446" class="muted">Lang: JavaScript | Stars: 0 | Forks: 0</text>
  <text x="760" y="428" class="small">Trophy: CRIMSON</text>
  <text x="1088" y="428" class="mono" text-anchor="end">Rating 19/100 [C]</text>

  <rect x="64" y="462" width="1072" height="46" rx="10" fill="#141417" stroke="#2a2a2d"/>
  <circle cx="92" cy="483" r="14" fill="#b30000"/>
  <text x="92" y="488" text-anchor="middle" class="mono">6</text>
    <text x="120" y="484" class="small">Sigil</text>
  <text x="120" y="502" class="muted">Lang: Rust | Stars: 0 | Forks: 0</text>
  <text x="760" y="484" class="small">Trophy: CRIMSON</text>
  <text x="1088" y="484" class="mono" text-anchor="end">Rating 15/100 [C]</text>

  <text x="64" y="548" class="muted">Ratings are computed from stars, forks, and placement in the trophy board.</text>
</svg>
